<svg width="251" height="48" viewBox="0 0 251 48" fill="none" xmlns="http://www.w3.org/2000/svg">
<g clip-path="url(#clip0_862_604)">
<path d="M136.156 17.1705C135.706 17.3774 135.304 17.8034 135.134 18.2538C135.049 18.4851 135 20.6517 135 24.6198V30.6328H137.8V26.8595H141.524L142.498 28.7461L143.46 30.6328H145.078C145.955 30.6328 146.685 30.5963 146.685 30.5598C146.685 30.5111 146.186 29.513 145.565 28.3445L144.458 26.2022L144.75 26.0196C146.393 24.9363 147.123 22.8062 146.685 20.3717C146.405 18.8867 145.687 17.8399 144.579 17.3531C143.959 17.0731 143.849 17.0609 140.234 17.0366C137.313 17.0122 136.448 17.0366 136.156 17.1705ZM143.216 19.9214C143.411 19.9944 143.606 20.2135 143.715 20.4935C143.946 21.0412 143.971 22.441 143.764 22.8548C143.241 23.8651 142.595 24.0599 139.844 24.0599H137.8V19.7997H140.344C141.743 19.7997 143.034 19.8483 143.216 19.9214ZM150.824 17.1096C149.619 17.4748 148.754 18.339 148.389 19.5197C148.097 20.4691 147.781 22.7088 147.781 23.7921C147.781 24.8389 148.073 26.969 148.328 27.8332C148.779 29.3304 149.546 30.0972 150.958 30.4624C151.566 30.6206 152.211 30.645 154.281 30.6085C156.654 30.572 156.898 30.5354 157.494 30.2798C159.21 29.513 159.953 27.5654 159.953 23.8164C159.941 19.8727 159.174 17.9252 157.36 17.2557C156.715 17.0244 156.435 17.0001 153.891 17.0122C152.37 17.0122 150.994 17.0609 150.824 17.1096ZM156.484 20.0796C157.299 21.1994 157.287 26.7134 156.459 27.5289C156.216 27.7845 151.53 27.7967 151.323 27.5533C150.751 26.8595 150.544 22.8548 150.982 20.9803C151.165 20.2378 151.262 20.0066 151.469 19.9214C151.615 19.8605 152.771 19.824 154.025 19.8362C156.082 19.8605 156.338 19.8849 156.484 20.0796ZM162.582 17.2679C162.314 17.4261 161.986 17.7426 161.852 17.9738C161.608 18.3877 161.596 18.6068 161.559 23.4756C161.535 26.8716 161.572 28.7096 161.657 29.0504C161.864 29.8051 162.399 30.3529 163.13 30.4989C163.884 30.6693 169.252 30.6693 170.214 30.5111C172.088 30.2068 173.05 29.1113 173.184 27.1029C173.269 25.9709 173.086 25.131 172.612 24.3764L172.259 23.8286L172.709 22.9522C173.147 22.1124 173.159 22.0271 173.159 20.8465C173.159 19.8362 173.099 19.5075 172.88 19.0085C172.527 18.2416 172.101 17.7913 171.334 17.3896L170.725 17.0609L166.891 17.0244C163.093 17.0001 163.057 17.0001 162.582 17.2679ZM170.116 19.9457C170.287 20.1161 170.396 20.9317 170.287 21.309C170.226 21.5281 170.031 21.8324 169.861 22.0028C169.557 22.2949 169.508 22.2949 167 22.3314L164.456 22.368V19.7875L167.244 19.824C168.778 19.8483 170.068 19.897 170.116 19.9457ZM169.581 25.3745C170.068 25.5692 170.336 26.0926 170.323 26.7864C170.311 27.2246 170.25 27.4437 170.104 27.5533C169.946 27.675 169.179 27.7115 167.171 27.7115H164.456V25.131L166.867 25.1797C168.181 25.2162 169.41 25.3014 169.581 25.3745ZM177.261 17.2557C176.081 17.7182 175.484 18.5459 175.022 20.3717C174.791 21.2968 174.754 21.7837 174.754 23.8164C174.754 26.0318 174.778 26.2752 175.083 27.4072C175.46 28.7827 175.813 29.3791 176.519 29.9025C177.395 30.5233 177.663 30.572 180.767 30.572C183.871 30.572 184.139 30.5233 185.015 29.9025C185.721 29.3791 186.074 28.7827 186.451 27.4072C186.756 26.2752 186.78 26.0318 186.78 23.8164C186.78 21.7837 186.744 21.2968 186.512 20.3717C186.05 18.5216 185.453 17.7061 184.236 17.2557C183.615 17.0244 183.311 17.0001 180.731 17.0122C178.187 17.0122 177.846 17.0366 177.261 17.2557ZM183.128 19.9214C183.457 20.0431 183.603 20.4204 183.834 21.7959C184.127 23.4878 183.871 26.6769 183.384 27.4194C183.201 27.7115 183.189 27.7115 180.767 27.7115C177.919 27.7115 178.089 27.7967 177.773 26.1778C177.322 23.9382 177.688 20.2013 178.369 19.9214C178.734 19.7753 182.739 19.7753 183.128 19.9214Z" fill="#276EB8"/>
<path d="M189.057 17.3773L188.68 17.7546V29.805L189.033 30.158C189.349 30.4623 189.483 30.511 190.104 30.511C190.7 30.511 190.871 30.4623 191.09 30.231C191.516 29.7806 191.601 29.2572 191.601 27.1393V25.1553H193.39L194.291 25.9343C196.092 27.4801 196.713 28.3078 196.713 29.1355C196.713 29.5981 196.774 29.7441 197.127 30.0971C197.492 30.4623 197.614 30.511 198.162 30.511C198.673 30.511 198.843 30.4501 199.172 30.158C199.562 29.8172 199.574 29.7685 199.562 28.8799C199.549 28.1131 199.489 27.8331 199.172 27.188C198.746 26.3359 197.504 24.8144 196.725 24.1937L196.214 23.792L197.005 23.0738C197.955 22.1974 198.831 21.0654 199.245 20.1769C199.476 19.6656 199.549 19.3005 199.562 18.6188C199.574 17.7425 199.562 17.6938 199.172 17.3529C198.819 17.0365 198.685 17 198.004 17C197.298 17 197.188 17.0365 196.969 17.3164C196.798 17.5355 196.713 17.8155 196.713 18.1806C196.713 18.4728 196.64 18.8866 196.543 19.1057C196.336 19.617 195.411 20.6272 194.291 21.5888L193.39 22.3557H191.601V20.3716C191.601 19.2883 191.54 18.1928 191.479 17.9494C191.297 17.2921 190.858 17 190.067 17C189.52 17 189.373 17.0486 189.057 17.3773ZM204.552 17.1704C202.909 17.6938 202.008 18.8623 201.375 21.248C201.083 22.3192 201.059 22.6843 201.01 25.776C200.937 29.4277 200.986 29.8293 201.546 30.2675C201.947 30.584 202.982 30.5962 203.359 30.2919C203.797 29.9389 203.895 29.5981 203.895 28.3322V27.1028L210.224 27.1028V28.4539C210.224 29.7806 210.224 29.805 210.577 30.158C210.894 30.4623 211.028 30.511 211.624 30.511C212.245 30.511 212.354 30.4745 212.683 30.1215L213.036 29.732L213 25.8369C212.951 22.234 212.926 21.8566 212.683 21.0411C212.099 19.1179 211.247 17.9129 210.103 17.3773C209.47 17.0852 209.299 17.0608 207.242 17.0365C205.684 17.0121 204.905 17.0486 204.552 17.1704ZM208.751 19.9334C209.421 20.1647 209.993 21.6375 210.151 23.4755L210.212 24.3032L203.858 24.3032L203.943 23.3294C204.09 21.6132 204.759 20.0065 205.38 19.8847C205.976 19.7752 208.386 19.8117 208.751 19.9334ZM216.858 17.1704C215.665 17.5477 214.996 18.132 214.582 19.1909C214.375 19.7265 214.314 20.116 214.314 21.0776C214.314 23.0251 214.898 24.1328 216.274 24.8023C216.822 25.07 217.041 25.0944 219.439 25.1553C221.922 25.2161 222.031 25.2283 222.299 25.4961C222.652 25.8491 222.689 26.8837 222.36 27.3827L222.153 27.7114H218.879C215.787 27.7114 215.592 27.7236 215.3 27.9548C214.618 28.4904 214.594 29.6589 215.239 30.2067L215.604 30.511H219.146C221.118 30.511 222.895 30.4501 223.139 30.3893C223.808 30.2067 224.526 29.5007 224.977 28.5878C225.354 27.8209 225.379 27.7114 225.379 26.4333C225.379 25.2405 225.342 25.0214 225.062 24.4249C224.66 23.5729 224.113 22.9399 223.516 22.6478C223.127 22.453 222.676 22.4044 220.291 22.3557C217.065 22.2826 217.162 22.3313 217.162 21.0776C217.162 19.8117 216.98 19.8726 220.863 19.7995L224.222 19.7387L224.551 19.41C224.843 19.1179 224.879 18.9718 224.928 18.0468L224.989 17L221.167 17.0121C218.44 17.0121 217.211 17.0608 216.858 17.1704ZM228.908 17.1704C228.641 17.2556 228.263 17.4138 228.056 17.5112C226.486 18.3389 225.829 21.1141 226.73 23.086C227.107 23.9137 227.521 24.3519 228.3 24.7657C228.884 25.0822 228.981 25.0944 231.343 25.1309C232.682 25.1431 233.923 25.2283 234.106 25.2891C234.532 25.4596 234.739 26.0803 234.629 26.8107C234.495 27.7357 234.593 27.7114 230.905 27.7114L227.606 27.7114L227.253 28.0644C226.949 28.3809 226.9 28.5147 226.9 29.1112C226.9 29.7076 226.949 29.8415 227.253 30.158L227.606 30.511H231.282C235.372 30.511 235.469 30.4988 236.321 29.6833C237.064 28.9651 237.405 28.1131 237.465 26.7133C237.538 25.0944 237.234 24.145 236.333 23.2564C235.932 22.8547 235.53 22.5748 235.226 22.4896C234.958 22.4165 233.741 22.3557 232.487 22.3557C231.233 22.3557 230.053 22.3192 229.846 22.2826C229.407 22.1974 229.213 21.8201 229.213 21.0776C229.213 20.3351 229.407 19.9578 229.846 19.8726C230.053 19.8361 231.525 19.7995 233.132 19.7995C236.918 19.7995 237.003 19.7508 237.003 17.9129V17L233.205 17.0121C230.491 17.0121 229.249 17.0608 228.908 17.1704ZM242.249 17.2434C241.896 17.3651 241.409 17.6207 241.178 17.8033C240.204 18.5458 239.328 20.4933 239.084 22.4774C238.902 23.865 238.914 29.2694 239.084 29.7685C239.255 30.2432 239.742 30.511 240.46 30.511C240.898 30.511 241.093 30.4379 241.409 30.158L241.811 29.805L241.847 28.4539L241.896 27.1028H248.055L248.104 28.4539L248.14 29.805L248.542 30.158C248.858 30.4501 249.041 30.511 249.54 30.511C250.039 30.511 250.222 30.4501 250.538 30.158L250.94 29.805L250.928 25.983C250.916 22.4896 250.903 22.1001 250.66 21.2237C250.112 19.2153 249.297 17.9981 248.116 17.4138C247.422 17.073 247.361 17.0608 245.158 17.0365C243.174 17 242.833 17.0243 242.249 17.2434ZM247.118 20.2864C247.605 20.8585 247.97 22.0757 248.043 23.2929L248.116 24.3032H241.872V23.5607C241.872 22.0149 242.553 20.2134 243.235 19.9213C243.393 19.8604 244.245 19.8239 245.146 19.8361L246.765 19.8604L247.118 20.2864Z" fill="#D61E2F"/>
</g>
<g clip-path="url(#clip1_862_604)">
<path d="M115 24.0001C115 31.9239 108.6 38.4001 100.6 38.4001C92.6764 38.4001 86.2002 31.9239 86.2002 24.0001C86.2002 16.0763 92.6002 9.6001 100.524 9.6001C108.6 9.6001 115 16.0763 115 24.0001Z" fill="#FFB600"/>
<path d="M100.6 9.6001C108.524 9.6001 115 16.0763 115 24.0001C115 31.9239 108.6 38.4001 100.6 38.4001C92.6764 38.4001 86.2002 31.9239 86.2002 24.0001" fill="#F7981D"/>
<path d="M100.6 9.6001C108.523 9.6001 115 16.0763 115 24.0001C115 31.9239 108.6 38.4001 100.6 38.4001" fill="#FF8500"/>
<path d="M81.2476 9.6001C73.4 9.67629 67 16.0763 67 24.0001C67 31.9239 73.4 38.4001 81.4 38.4001C85.1333 38.4001 88.4857 36.9525 91.0762 34.6668C91.6095 34.2096 92.0667 33.6763 92.5238 33.143H89.5524C89.1714 32.6858 88.7905 32.1525 88.4857 31.6953H93.5905C93.8952 31.2382 94.2 30.7049 94.4286 30.1715H87.6476C87.419 29.7144 87.1905 29.181 87.0381 28.6477H94.9619C95.419 27.2001 95.7238 25.6763 95.7238 24.0763C95.7238 23.0096 95.5714 22.0191 95.419 21.0287H86.581C86.6571 20.4953 86.8095 20.0382 86.9619 19.5049H94.8857C94.7333 18.9715 94.5048 18.4382 94.2762 17.981H87.5714C87.8 17.4477 88.1048 16.9906 88.4095 16.4572H93.5143C93.2095 15.9239 92.8286 15.3906 92.3714 14.9334H89.5524C90.0095 14.4001 90.4667 13.943 91 13.4858C88.4857 11.1239 85.0571 9.75248 81.3238 9.75248C81.3238 9.6001 81.3238 9.6001 81.2476 9.6001Z" fill="#FF5050"/>
<path d="M67 24.0001C67 31.9239 73.4 38.4001 81.4 38.4001C85.1333 38.4001 88.4857 36.9524 91.0762 34.6667C91.6095 34.2096 92.0667 33.6762 92.5238 33.1429H89.5524C89.1714 32.6858 88.7905 32.1524 88.4857 31.6953H93.5905C93.8952 31.2381 94.2 30.7048 94.4286 30.1715H87.6476C87.419 29.7143 87.1905 29.181 87.0381 28.6477H94.9619C95.419 27.2001 95.7238 25.6762 95.7238 24.0762C95.7238 23.0096 95.5714 22.0191 95.419 21.0286H86.581C86.6571 20.4953 86.8095 20.0382 86.9619 19.5048H94.8857C94.7333 18.9715 94.5048 18.4382 94.2762 17.981H87.5714C87.8 17.4477 88.1048 16.9905 88.4095 16.4572H93.5143C93.2095 15.9239 92.8286 15.3905 92.3714 14.9334H89.5524C90.0095 14.4001 90.4667 13.9429 91 13.4858C88.4857 11.1239 85.0571 9.75244 81.3238 9.75244H81.2476" fill="#E52836"/>
<path d="M81.3995 38.4001C85.1328 38.4001 88.4852 36.9524 91.0756 34.6667C91.609 34.2096 92.0661 33.6762 92.5233 33.1429H89.5518C89.1709 32.6858 88.7899 32.1524 88.4852 31.6953H93.5899C93.8947 31.2381 94.1995 30.7048 94.428 30.1715H87.6471C87.4185 29.7143 87.1899 29.181 87.0375 28.6477H94.9614C95.4185 27.2001 95.7233 25.6762 95.7233 24.0762C95.7233 23.0096 95.5709 22.0191 95.4185 21.0286H86.5804C86.6566 20.4953 86.809 20.0382 86.9614 19.5048H94.8852C94.7328 18.9715 94.5042 18.4382 94.2756 17.981H87.5709C87.7995 17.4477 88.1042 16.9905 88.409 16.4572H93.5137C93.209 15.9239 92.828 15.3905 92.3709 14.9334H89.5518C90.009 14.4001 90.4661 13.9429 90.9995 13.4858C88.4852 11.1239 85.0566 9.75244 81.3233 9.75244H81.2471" fill="#CB2026"/>
<path d="M86.5054 27.6569L86.734 26.3617C86.6578 26.3617 86.5054 26.4379 86.353 26.4379C85.8197 26.4379 85.7435 26.1331 85.8197 25.9807L86.2768 23.3141H87.1149L87.3435 21.8664H86.5816L86.734 20.9521H85.2102C85.2102 20.9521 84.2959 25.9807 84.2959 26.5902C84.2959 27.5045 84.8292 27.8855 85.5149 27.8855C85.9721 27.8855 86.353 27.7331 86.5054 27.6569Z" fill="white"/>
<path d="M87.0391 25.219C87.0391 27.3523 88.4867 27.8856 89.7057 27.8856C90.8486 27.8856 91.3057 27.6571 91.3057 27.6571L91.6105 26.2094C91.6105 26.2094 90.7724 26.5904 90.0105 26.5904C88.3343 26.5904 88.6391 25.3714 88.6391 25.3714H91.7629C91.7629 25.3714 91.9914 24.3809 91.9914 23.9999C91.9914 23.0094 91.4581 21.7904 89.7819 21.7904C88.1819 21.638 87.0391 23.3142 87.0391 25.219ZM89.7057 23.0095C90.5438 23.0095 90.3914 23.9999 90.3914 24.0761H88.7153C88.7153 23.9999 88.8676 23.0095 89.7057 23.0095Z" fill="white"/>
<path d="M99.3809 27.6571L99.6857 25.9809C99.6857 25.9809 98.9238 26.3618 98.3904 26.3618C97.3238 26.3618 96.8666 25.5237 96.8666 24.6095C96.8666 22.7809 97.7809 21.7904 98.8476 21.7904C99.6095 21.7904 100.219 22.2476 100.219 22.2476L100.448 20.6476C100.448 20.6476 99.5333 20.2666 98.6952 20.2666C96.9428 20.2666 95.1904 21.7904 95.1904 24.6856C95.1904 26.5904 96.1047 27.8856 97.9333 27.8856C98.5428 27.8856 99.3809 27.6571 99.3809 27.6571Z" fill="white"/>
<path d="M78.1247 21.6382C77.0581 21.6382 76.2962 21.9429 76.2962 21.9429L76.0676 23.2382C76.0676 23.2382 76.7533 22.9334 77.7438 22.9334C78.2771 22.9334 78.7343 23.0096 78.7343 23.4668C78.7343 23.7715 78.6581 23.8477 78.6581 23.8477C78.6581 23.8477 78.2009 23.8477 77.9723 23.8477C76.6771 23.8477 75.2295 24.381 75.2295 26.1334C75.2295 27.5049 76.1438 27.8096 76.6771 27.8096C77.7438 27.8096 78.2009 27.1239 78.2771 27.1239L78.2009 27.7334H79.5724L80.1819 23.5429C80.1819 21.7144 78.6581 21.6382 78.1247 21.6382ZM78.4295 25.0668C78.4295 25.2953 78.2771 26.5144 77.3628 26.5144C76.9057 26.5144 76.7533 26.1334 76.7533 25.9049C76.7533 25.5239 76.9819 24.9906 78.1247 24.9906C78.3533 25.0668 78.4295 25.0668 78.4295 25.0668Z" fill="white"/>
<path d="M81.6293 27.8096C82.0103 27.8096 83.915 27.8858 83.915 25.8287C83.915 23.9239 82.0865 24.3049 82.0865 23.543C82.0865 23.162 82.3912 23.0096 82.9246 23.0096C83.1531 23.0096 83.9912 23.0858 83.9912 23.0858L84.2198 21.7144C84.2198 21.7144 83.6865 21.562 82.7722 21.562C81.6293 21.562 80.4865 22.0192 80.4865 23.543C80.4865 25.2953 82.3912 25.143 82.3912 25.8287C82.3912 26.2858 81.8579 26.362 81.477 26.362C80.7912 26.362 80.1055 26.1334 80.1055 26.1334L79.877 27.5049C79.9531 27.6572 80.3341 27.8096 81.6293 27.8096Z" fill="white"/>
<path d="M112.029 20.4189L111.725 22.4761C111.725 22.4761 111.115 21.7142 110.277 21.7142C108.906 21.7142 107.687 23.3904 107.687 25.3713C107.687 26.5904 108.296 27.8856 109.591 27.8856C110.506 27.8856 111.039 27.2761 111.039 27.2761L110.963 27.8094H112.487L113.629 20.4951L112.029 20.4189ZM111.344 24.457C111.344 25.2951 110.963 26.3618 110.125 26.3618C109.591 26.3618 109.287 25.9047 109.287 25.1428C109.287 23.9237 109.82 23.1618 110.506 23.1618C111.039 23.1618 111.344 23.5428 111.344 24.457Z" fill="white"/>
<path d="M69.8197 27.7332L70.734 22.2475L70.8864 27.7332H71.953L73.934 22.2475L73.0959 27.7332H74.6959L75.9149 20.4189H73.4006L71.8768 24.9142L71.8006 20.4189H69.5911L68.3721 27.7332H69.8197Z" fill="white"/>
<path d="M93.4369 27.7334C93.8941 25.2191 93.9703 23.162 95.0369 23.5429C95.1893 22.5524 95.4179 22.1715 95.5703 21.7905C95.5703 21.7905 95.4941 21.7905 95.2655 21.7905C94.5798 21.7905 94.0465 22.7048 94.0465 22.7048L94.1988 21.8667H92.7512L91.7607 27.8096H93.4369V27.7334Z" fill="white"/>
<path d="M102.886 21.6382C101.82 21.6382 101.058 21.9429 101.058 21.9429L100.829 23.2382C100.829 23.2382 101.515 22.9334 102.505 22.9334C103.039 22.9334 103.496 23.0096 103.496 23.4668C103.496 23.7715 103.42 23.8477 103.42 23.8477C103.42 23.8477 102.963 23.8477 102.734 23.8477C101.439 23.8477 99.9912 24.381 99.9912 26.1334C99.9912 27.5049 100.905 27.8096 101.439 27.8096C102.505 27.8096 102.963 27.1239 103.039 27.1239L102.963 27.7334H104.334L104.944 23.5429C105.02 21.7144 103.42 21.6382 102.886 21.6382ZM103.267 25.0668C103.267 25.2953 103.115 26.5144 102.201 26.5144C101.744 26.5144 101.591 26.1334 101.591 25.9049C101.591 25.5239 101.82 24.9906 102.963 24.9906C103.191 25.0668 103.191 25.0668 103.267 25.0668Z" fill="white"/>
<path d="M106.238 27.7334C106.695 25.2191 106.771 23.162 107.838 23.5429C107.99 22.5524 108.219 22.1715 108.371 21.7905C108.371 21.7905 108.295 21.7905 108.066 21.7905C107.381 21.7905 106.847 22.7048 106.847 22.7048L107 21.8667H105.552L104.562 27.8096H106.238V27.7334Z" fill="white"/>
<path d="M84.1436 26.5902C84.1436 27.5045 84.6769 27.8855 85.3626 27.8855C85.8959 27.8855 86.3531 27.7331 86.5055 27.6569L86.734 26.3617C86.6578 26.3617 86.5055 26.4379 86.3531 26.4379C85.8197 26.4379 85.7436 26.1331 85.8197 25.9807L86.2769 23.3141H87.115L87.3436 21.8664H86.5817L86.734 20.9521" fill="#DCE5E5"/>
<path d="M87.8008 25.219C87.8008 27.3523 88.4865 27.8856 89.7055 27.8856C90.8484 27.8856 91.3055 27.6571 91.3055 27.6571L91.6103 26.2094C91.6103 26.2094 90.7722 26.5904 90.0103 26.5904C88.3341 26.5904 88.6389 25.3714 88.6389 25.3714H91.7627C91.7627 25.3714 91.9913 24.3809 91.9913 23.9999C91.9913 23.0094 91.4579 21.7904 89.7817 21.7904C88.1817 21.638 87.8008 23.3142 87.8008 25.219ZM89.7055 23.0095C90.5436 23.0095 90.696 23.9999 90.696 24.0761H88.7151C88.7151 23.9999 88.8674 23.0095 89.7055 23.0095Z" fill="#DCE5E5"/>
<path d="M99.3817 27.6571L99.6865 25.9809C99.6865 25.9809 98.9246 26.3618 98.3912 26.3618C97.3246 26.3618 96.8674 25.5237 96.8674 24.6095C96.8674 22.7809 97.7817 21.7904 98.8484 21.7904C99.6103 21.7904 100.22 22.2476 100.22 22.2476L100.448 20.6476C100.448 20.6476 99.5341 20.2666 98.696 20.2666C96.9436 20.2666 95.9531 21.7904 95.9531 24.6856C95.9531 26.5904 96.1055 27.8856 97.9341 27.8856C98.5436 27.8856 99.3817 27.6571 99.3817 27.6571Z" fill="#DCE5E5"/>
<path d="M76.0676 23.3143C76.0676 23.3143 76.7533 23.0096 77.7438 23.0096C78.2771 23.0096 78.7343 23.0858 78.7343 23.5429C78.7343 23.8477 78.6581 23.9239 78.6581 23.9239C78.6581 23.9239 78.2009 23.9239 77.9723 23.9239C76.6771 23.9239 75.2295 24.4572 75.2295 26.2096C75.2295 27.581 76.1438 27.8858 76.6771 27.8858C77.7438 27.8858 78.2009 27.2001 78.2771 27.2001L78.2009 27.8096H79.5724L80.1819 23.6191C80.1819 21.8667 78.6581 21.7905 78.0485 21.7905L76.0676 23.3143ZM79.1914 25.0667C79.1914 25.2953 78.2771 26.5143 77.3628 26.5143C76.9057 26.5143 76.7533 26.1334 76.7533 25.9048C76.7533 25.5239 76.9819 24.9905 78.1247 24.9905C78.3533 25.0667 79.1914 25.0667 79.1914 25.0667Z" fill="#DCE5E5"/>
<path d="M79.9512 27.6572C79.9512 27.6572 80.4083 27.8096 81.7036 27.8096C82.0845 27.8096 83.9893 27.8858 83.9893 25.8287C83.9893 23.9239 82.1607 24.3049 82.1607 23.543C82.1607 23.162 82.4655 23.0096 82.9988 23.0096C83.2274 23.0096 84.0655 23.0858 84.0655 23.0858L84.294 21.7144C84.294 21.7144 83.7607 21.562 82.8464 21.562C81.7036 21.562 81.3226 22.0192 81.3226 23.543C81.3226 25.2953 82.4655 25.143 82.4655 25.8287C82.4655 26.2858 81.9321 26.362 81.5512 26.362" fill="#DCE5E5"/>
<path d="M111.724 22.4761C111.724 22.4761 111.115 21.7142 110.276 21.7142C108.905 21.7142 108.448 23.3904 108.448 25.3713C108.448 26.5903 108.296 27.8856 109.591 27.8856C110.505 27.8856 111.038 27.2761 111.038 27.2761L110.962 27.8094H112.486L113.629 20.4951L111.724 22.4761ZM111.648 24.457C111.648 25.2951 110.962 26.3618 110.124 26.3618C109.591 26.3618 109.286 25.9046 109.286 25.1427C109.286 23.9237 109.819 23.1618 110.505 23.1618C111.038 23.1618 111.648 23.5427 111.648 24.457Z" fill="#DCE5E5"/>
<path d="M69.8197 27.7332L70.734 22.2475L70.8864 27.7332H71.953L73.934 22.2475L73.0959 27.7332H74.6959L75.9149 20.4189H74.0102L71.8768 24.9142L71.8006 20.4189H70.9625L68.3721 27.7332H69.8197Z" fill="#DCE5E5"/>
<path d="M91.8389 27.7334H93.4389C93.896 25.2191 93.9722 23.162 95.0389 23.5429C95.1912 22.5524 95.4198 22.1715 95.5722 21.7905C95.5722 21.7905 95.496 21.7905 95.2674 21.7905C94.5817 21.7905 94.0484 22.7048 94.0484 22.7048L94.2008 21.8667" fill="#DCE5E5"/>
<path d="M100.829 23.3143C100.829 23.3143 101.515 23.0096 102.505 23.0096C103.039 23.0096 103.496 23.0858 103.496 23.5429C103.496 23.8477 103.42 23.9239 103.42 23.9239C103.42 23.9239 102.963 23.9239 102.734 23.9239C101.439 23.9239 99.9912 24.4572 99.9912 26.2096C99.9912 27.581 100.905 27.8858 101.439 27.8858C102.505 27.8858 102.963 27.2001 103.039 27.2001L102.963 27.8096H104.334L104.944 23.6191C104.944 21.8667 103.42 21.7905 102.81 21.7905L100.829 23.3143ZM103.953 25.0667C103.953 25.2953 103.039 26.5143 102.125 26.5143C101.667 26.5143 101.515 26.1334 101.515 25.9048C101.515 25.5239 101.744 24.9905 102.886 24.9905C103.191 25.0667 103.953 25.0667 103.953 25.0667Z" fill="#DCE5E5"/>
<path d="M104.639 27.7334H106.239C106.696 25.2191 106.772 23.162 107.839 23.5429C107.991 22.5524 108.22 22.1715 108.372 21.7905C108.372 21.7905 108.296 21.7905 108.067 21.7905C107.382 21.7905 106.848 22.7048 106.848 22.7048L107.001 21.8667" fill="#DCE5E5"/>
</g>
<g clip-path="url(#clip2_862_604)">
<path d="M17.5996 30.8954L20.0377 17.1812H23.8472L21.4853 30.8954H17.5996Z" fill="#3C58BF"/>
<path d="M17.5996 30.8954L20.7234 17.1812H23.8472L21.4853 30.8954H17.5996Z" fill="#293688"/>
<path d="M35.2763 17.3332C34.5144 17.0284 33.2953 16.7236 31.7715 16.7236C27.962 16.7236 25.2191 18.6284 25.2191 21.3713C25.2191 23.4284 27.1239 24.4951 28.6477 25.1808C30.1715 25.8665 30.6287 26.3236 30.6287 26.9332C30.6287 27.8474 29.4096 28.3046 28.343 28.3046C26.8191 28.3046 25.981 28.076 24.6858 27.5427L24.1525 27.3141L23.6191 30.4379C24.5334 30.8189 26.2096 31.1998 27.962 31.1998C32.0001 31.1998 34.6668 29.2951 34.6668 26.3998C34.6668 24.7998 33.6763 23.5808 31.3906 22.5903C30.0191 21.9046 29.181 21.5236 29.181 20.8379C29.181 20.2284 29.8668 19.6189 31.3906 19.6189C32.6858 19.6189 33.6001 19.8474 34.2858 20.1522L34.6668 20.3046L35.2763 17.3332Z" fill="#3C58BF"/>
<path d="M35.2763 17.3332C34.5144 17.0284 33.2953 16.7236 31.7715 16.7236C27.962 16.7236 25.9049 18.6284 25.9049 21.3713C25.9049 23.4284 27.1239 24.4951 28.6477 25.1808C30.1715 25.8665 30.6287 26.3236 30.6287 26.9332C30.6287 27.8474 29.4096 28.3046 28.343 28.3046C26.8191 28.3046 25.981 28.076 24.6858 27.5427L24.1525 27.3141L23.6191 30.4379C24.5334 30.8189 26.2096 31.1998 27.962 31.1998C32.0001 31.1998 34.6668 29.2951 34.6668 26.3998C34.6668 24.7998 33.6763 23.5808 31.3906 22.5903C30.0191 21.9046 29.181 21.5236 29.181 20.8379C29.181 20.2284 29.8668 19.6189 31.3906 19.6189C32.6858 19.6189 33.6001 19.8474 34.2858 20.1522L34.6668 20.3046L35.2763 17.3332Z" fill="#293688"/>
<path d="M41.83 17.1812C40.9157 17.1812 40.23 17.2573 39.8491 18.1716L34.1348 30.8954H38.2491L39.011 28.6097H43.8871L44.3443 30.8954H48.0014L44.8014 17.1812H41.83ZM40.0776 26.324C40.3062 25.6383 41.6014 22.2859 41.6014 22.2859C41.6014 22.2859 41.9062 21.4478 42.1348 20.9145L42.3633 22.2097C42.3633 22.2097 43.1252 25.6383 43.2776 26.4002H40.0776V26.324Z" fill="#3C58BF"/>
<path d="M42.7443 17.1812C41.83 17.1812 41.1443 17.2573 40.7633 18.1716L34.1348 30.8954H38.2491L39.011 28.6097H43.8871L44.3443 30.8954H48.0014L44.8014 17.1812H42.7443ZM40.0776 26.324C40.3824 25.5621 41.6014 22.2859 41.6014 22.2859C41.6014 22.2859 41.9062 21.4478 42.1348 20.9145L42.3633 22.2097C42.3633 22.2097 43.1252 25.6383 43.2776 26.4002H40.0776V26.324Z" fill="#293688"/>
<path d="M10.5912 26.7811L10.2103 24.8002C9.52457 22.5145 7.31505 20.0002 4.87695 18.7811L8.30552 30.9716H12.4198L18.5912 17.2573H14.477L10.5912 26.7811Z" fill="#3C58BF"/>
<path d="M10.5912 26.7811L10.2103 24.8002C9.52457 22.5145 7.31505 20.0002 4.87695 18.7811L8.30552 30.9716H12.4198L18.5912 17.2573H15.2389L10.5912 26.7811Z" fill="#293688"/>
<path d="M0 17.1812L0.685714 17.3335C5.5619 18.4764 8.91428 21.3716 10.2095 24.8002L8.83809 18.324C8.60952 17.4097 7.92381 17.1812 7.08571 17.1812H0Z" fill="#FFBC00"/>
<path d="M0 17.1812C4.87619 18.324 8.91428 21.2954 10.2095 24.724L8.91428 19.3145C8.68571 18.4002 7.92381 17.8669 7.08571 17.8669L0 17.1812Z" fill="#F7981D"/>
<path d="M0 17.1812C4.87619 18.324 8.91428 21.2954 10.2095 24.724L9.29524 21.7526C9.06667 20.8383 8.7619 19.924 7.69524 19.5431L0 17.1812Z" fill="#ED7C00"/>
<path d="M14.3998 26.3236L11.8093 23.7332L10.5902 26.6284L10.2855 24.7236C9.59977 22.4379 7.39024 19.9236 4.95215 18.7046L8.38072 30.8951H12.495L14.3998 26.3236Z" fill="#051244"/>
<path d="M21.4863 30.8949L18.2101 27.5425L17.6006 30.8949H21.4863Z" fill="#051244"/>
<path d="M30.2477 26.1714C30.5525 26.4761 30.7049 26.7047 30.6287 27.0095C30.6287 27.9238 29.4096 28.3809 28.3429 28.3809C26.8191 28.3809 25.981 28.1523 24.6858 27.619L24.1525 27.3904L23.6191 30.5142C24.5334 30.8952 26.2096 31.2761 27.962 31.2761C30.4001 31.2761 32.381 30.5904 33.5239 29.3714L30.2477 26.1714Z" fill="#051244"/>
<path d="M34.666 30.895H38.247L39.0089 28.6093H43.8851L44.3422 30.895H47.9994L46.7041 25.3331L42.1327 20.9141L42.3613 22.1331C42.3613 22.1331 43.1232 25.5617 43.2755 26.3236H40.0755C40.3803 25.5617 41.5993 22.2855 41.5993 22.2855C41.5993 22.2855 41.9041 21.4474 42.1327 20.9141" fill="#051244"/>
</g>
<defs>
<clipPath id="clip0_862_604">
<rect width="116" height="13.6327" fill="white" transform="translate(135 17)"/>
</clipPath>
<clipPath id="clip1_862_604">
<rect width="48" height="48" fill="white" transform="translate(67)"/>
</clipPath>
<clipPath id="clip2_862_604">
<rect width="48" height="48" fill="white"/>
</clipPath>
</defs>
</svg>
