<svg width="20" height="20" viewBox="0 0 20 20" fill="none" xmlns="http://www.w3.org/2000/svg">
<path d="M6.79094 10.9558C6.62844 11.1183 6.62844 11.3825 6.79094 11.545C6.87262 11.6258 6.97926 11.6667 7.08594 11.6667C7.19262 11.6667 7.29926 11.6259 7.38012 11.545L9.88012 9.045C9.91844 9.00668 9.9493 8.96 9.97012 8.90918C9.9818 8.88 9.98344 8.85 9.98844 8.81918C9.99262 8.79586 10.0026 8.77418 10.0026 8.75C10.0026 8.71832 9.99094 8.69 9.9843 8.66082C9.9793 8.63832 9.9793 8.61414 9.97012 8.5925C9.94844 8.54 9.9168 8.49332 9.87762 8.45332L7.38012 5.95582C7.21762 5.79332 6.95344 5.79332 6.79094 5.95582C6.62844 6.11832 6.62844 6.3825 6.79094 6.545L8.57844 8.33332H1.25262C1.02262 8.33332 0.835938 8.52 0.835938 8.75C0.835938 8.98 1.02262 9.16668 1.25262 9.16668H8.58012L6.79094 10.9558Z" fill="black"/>
<path d="M17.3675 0C17.3033 0 17.2408 0.0125 17.1783 0.0191797C17.1467 0.0116797 17.1167 0 17.0833 0H7.08332C5.935 0 5 0.935 5 2.08332V6.25C5 6.48 5.18668 6.66668 5.41668 6.66668C5.64668 6.66668 5.83336 6.48 5.83336 6.25V2.08332C5.83336 1.39414 6.39418 0.83332 7.08336 0.83332H15.0534L11.9242 2.17414C11.2617 2.45832 10.8334 3.10746 10.8334 3.82832V16.6666H7.08336C6.48418 16.6666 5.97504 16.25 5.85086 16.0775L5.83336 11.2483C5.83254 11.0191 5.64586 10.8333 5.41668 10.8333C5.41668 10.8333 5.41586 10.8333 5.415 10.8333C5.185 10.8341 4.99918 11.0216 5 11.2516L5.01918 16.1074C5.0025 16.2899 5.08836 16.4807 5.28 16.6907C5.62082 17.0641 6.2975 17.4999 7.08332 17.4999H10.8333V18.2007C10.8333 19.1924 11.6408 19.9999 12.6325 19.9999C12.8783 19.9999 13.1175 19.9507 13.3408 19.8549L18.0758 17.8257C18.7383 17.5416 19.1666 16.8924 19.1666 16.1716V1.79918C19.1667 0.8075 18.3592 0 17.3675 0ZM18.3333 16.1717C18.3333 16.5584 18.1033 16.9075 17.7475 17.0592L13.0125 19.0883C12.8925 19.1408 12.7642 19.1666 12.6325 19.1666C12.1 19.1666 11.6667 18.7333 11.6667 18.2008V3.82832C11.6667 3.44164 11.8967 3.0925 12.2525 2.94082L16.9875 0.91168C17.1075 0.85918 17.2358 0.833359 17.3675 0.833359C17.9 0.833359 18.3333 1.26668 18.3333 1.79918V16.1717Z" fill="black"/>
<path d="M12.9167 9.16668C12.6867 9.16668 12.5 9.35336 12.5 9.58336V11.25C12.5 11.48 12.6867 11.6667 12.9167 11.6667C13.1467 11.6667 13.3334 11.48 13.3334 11.25V9.58332C13.3333 9.35332 13.1467 9.16668 12.9167 9.16668Z" fill="black"/>
</svg>
